<?xml version="1.0" standalone="no"?>
<!DOCTYPE svg PUBLIC "-//W3C//DTD SVG 20010904//EN"
 "http://www.w3.org/TR/2001/REC-SVG-20010904/DTD/svg10.dtd">
<svg version="1.0" xmlns="http://www.w3.org/2000/svg"
 width="750.000000pt" height="750.000000pt" viewBox="0 0 750.000000 750.000000"
 preserveAspectRatio="xMidYMid meet">
<metadata>
Created by potrace 1.11, written by Peter Selinger 2001-2013
</metadata>
<g transform="translate(0.000000,750.000000) scale(0.100000,-0.100000)"
fill="#000000" stroke="none">
<path d="M0 3750 l0 -3750 3750 0 3750 0 0 3750 0 3750 -3750 0 -3750 0 0
-3750z m1770 905 l0 -625 170 0 170 0 0 625 0 625 225 0 225 0 0 -1520 0
-1520 -225 0 -225 0 0 660 0 660 -170 0 -170 0 -2 -657 -3 -658 -225 0 -225 0
-3 1518 -2 1517 230 0 230 0 0 -625z m1476 -110 c46 -401 87 -774 93 -829 10
-99 16 -120 29 -99 4 6 52 383 107 837 l99 826 167 0 166 0 7 -57 c69 -588
196 -1606 200 -1610 12 -12 26 11 26 41 0 19 18 195 40 392 22 198 61 539 85
759 25 220 47 417 51 438 l6 37 210 0 210 0 -6 -37 c-3 -21 -94 -690 -201
-1488 -107 -797 -197 -1465 -200 -1482 l-6 -33 -174 0 c-173 0 -175 0 -180 23
-2 12 -43 290 -90 617 -47 327 -94 651 -105 720 -10 69 -22 153 -26 188 -4 34
-10 62 -14 62 -4 0 -11 -28 -14 -62 -4 -35 -56 -396 -115 -803 l-107 -740
-169 -3 c-93 -1 -172 1 -177 6 -5 5 -98 674 -208 1488 -109 813 -201 1494
-204 1512 l-5 32 212 -2 211 -3 82 -730z m2414 706 c214 -64 348 -178 440
-376 105 -224 128 -583 55 -854 -69 -255 -227 -434 -452 -512 -81 -28 -185
-49 -244 -49 l-49 0 -2 -607 -3 -608 -225 0 -225 0 -3 1518 -2 1518 317 -3
c294 -4 324 -6 393 -27z"/>
<path d="M5410 4370 l0 -453 67 7 c85 9 139 33 180 79 34 39 63 119 63 174 0
18 5 33 10 33 6 0 10 57 10 150 0 93 -4 150 -10 150 -5 0 -10 15 -10 34 0 19
-9 63 -20 98 -32 105 -106 162 -230 175 l-60 6 0 -453z"/>
</g>
</svg>
